<svg width="117" height="31" viewBox="0 0 117 31" fill="none" xmlns="http://www.w3.org/2000/svg">
<path d="M23.8906 11.3281C24.1771 11.5365 24.3854 11.6927 24.5156 11.7969C24.6719 11.875 24.7891 11.9401 24.8672 11.9922C24.9714 12.0443 25.0625 12.1094 25.1406 12.1875C25.2448 12.2656 25.401 12.3828 25.6094 12.5391C25.4792 12.8255 25.4141 13.0469 25.4141 13.2031C25.4141 13.3594 25.4271 13.5156 25.4531 13.6719C25.4792 13.8021 25.5052 13.9453 25.5312 14.1016C25.5833 14.2578 25.5964 14.4661 25.5703 14.7266C24.138 15.638 22.862 16.3672 21.7422 16.9141C20.6484 17.4349 19.5807 17.8906 18.5391 18.2812C17.5234 18.6719 16.4557 19.0495 15.3359 19.4141C14.2422 19.7526 12.9661 20.2083 11.5078 20.7812C12.1068 21.1458 12.875 21.4714 13.8125 21.7578C14.776 22.0182 15.7266 22.3307 16.6641 22.6953C17.6276 23.0339 18.5 23.4635 19.2812 23.9844C20.0625 24.5052 20.5833 25.1823 20.8438 26.0156C21.2083 26.0417 21.5208 26.25 21.7812 26.6406C22.0677 27.0312 22.1849 27.487 22.1328 28.0078C21.8724 28.1641 21.625 28.3464 21.3906 28.5547C21.1823 28.737 20.9089 28.8802 20.5703 28.9844C20.2839 29.0365 19.9062 29.0104 19.4375 28.9062C18.9948 28.8021 18.5 28.6589 17.9531 28.4766C17.4323 28.2943 16.8724 28.099 16.2734 27.8906C15.7005 27.6823 15.1536 27.513 14.6328 27.3828C14.112 27.2526 13.5391 27.1354 12.9141 27.0312C12.3151 26.9271 11.7552 26.7708 11.2344 26.5625C11 26.4583 10.7917 26.3411 10.6094 26.2109C10.4531 26.0547 10.2578 25.9505 10.0234 25.8984C9.55469 25.8203 9.04688 25.6771 8.5 25.4688C7.97917 25.2344 7.44531 24.987 6.89844 24.7266C6.35156 24.4661 5.80469 24.2057 5.25781 23.9453C4.73698 23.6849 4.24219 23.4505 3.77344 23.2422C3.79948 23.0859 3.63021 22.8906 3.26562 22.6562C2.90104 22.4219 2.51042 22.2917 2.09375 22.2656C2.09375 21.9531 1.96354 21.6797 1.70312 21.4453C1.46875 21.1849 1.28646 20.8984 1.15625 20.5859C0.869792 19.8568 0.973958 19.1667 1.46875 18.5156C1.96354 17.8646 2.70573 17.474 3.69531 17.3438C4.00781 17.4479 4.24219 17.5 4.39844 17.5C4.58073 17.474 4.8151 17.526 5.10156 17.6562C5.57031 17.3438 6.13021 17.0443 6.78125 16.7578C7.45833 16.4453 8.10938 16.3542 8.73438 16.4844C8.8125 16.276 8.95573 16.1719 9.16406 16.1719C9.39844 16.1719 9.54167 16.0547 9.59375 15.8203C10.6615 15.638 11.7031 15.3516 12.7188 14.9609C13.7344 14.5703 14.724 14.1536 15.6875 13.7109C16.651 13.2422 17.5755 12.7865 18.4609 12.3438C19.3724 11.875 20.2448 11.4583 21.0781 11.0938C21.4427 11.1979 21.7812 11.1979 22.0938 11.0938C22.4062 10.9635 22.7318 10.9115 23.0703 10.9375C22.9922 11.0156 22.9792 11.0677 23.0312 11.0938C23.0833 11.1198 23.1615 11.1458 23.2656 11.1719C23.3698 11.1719 23.474 11.1849 23.5781 11.2109C23.7083 11.2109 23.8125 11.25 23.8906 11.3281ZM33.0703 26.3281C32.8099 26.5365 32.6536 26.8099 32.6016 27.1484C32.5495 27.4609 32.4844 27.7734 32.4062 28.0859C32.3281 28.3984 32.1849 28.6719 31.9766 28.9062C31.7943 29.1146 31.4557 29.2057 30.9609 29.1797C30.8568 29.3099 30.8307 29.388 30.8828 29.4141C30.9609 29.4401 31.026 29.5573 31.0781 29.7656C30.7135 29.7135 30.4531 29.7396 30.2969 29.8438C30.1406 29.9479 29.9453 30.026 29.7109 30.0781C29.112 29.8958 28.6042 29.5703 28.1875 29.1016C27.7969 28.6068 27.4453 28.0729 27.1328 27.5C26.8464 26.9271 26.5859 26.3411 26.3516 25.7422C26.1432 25.1432 25.9219 24.6224 25.6875 24.1797C25.6875 24.0755 25.7396 24.0365 25.8438 24.0625C25.9219 24.0625 26 24.0625 26.0781 24.0625C25.9479 23.8021 25.8568 23.5156 25.8047 23.2031C25.7266 22.8646 25.5964 22.5911 25.4141 22.3828C26.1693 20.7682 26.9766 19.0885 27.8359 17.3438C28.6953 15.5729 29.5547 13.7891 30.4141 11.9922C31.2995 10.1693 32.1719 8.34635 33.0312 6.52344C33.9167 4.67448 34.763 2.86458 35.5703 1.09375C36.2995 1.35417 37.0026 1.66667 37.6797 2.03125C38.3828 2.36979 39.0208 2.77344 39.5938 3.24219C40.1667 3.71094 40.6484 4.25781 41.0391 4.88281C41.4557 5.48177 41.7292 6.17188 41.8594 6.95312C41.8073 7.10938 41.7422 7.16146 41.6641 7.10938C41.5859 7.05729 41.5208 7.08333 41.4688 7.1875C41.599 7.34375 41.6641 7.46094 41.6641 7.53906C41.6901 7.59115 41.6901 7.65625 41.6641 7.73438C41.638 7.78646 41.625 7.86458 41.625 7.96875C41.625 8.07292 41.6901 8.21615 41.8203 8.39844C41.6901 8.3724 41.599 8.39844 41.5469 8.47656C41.4948 8.52865 41.4036 8.52865 41.2734 8.47656C41.4036 8.84115 41.4427 9.1276 41.3906 9.33594C41.3385 9.54427 41.2604 9.73958 41.1562 9.92188C41.0521 10.0781 40.9609 10.2604 40.8828 10.4688C40.8307 10.651 40.8568 10.9115 40.9609 11.25C40.8568 11.25 40.7786 11.276 40.7266 11.3281C40.7005 11.3542 40.6745 11.3932 40.6484 11.4453C40.6224 11.4974 40.5833 11.5495 40.5312 11.6016C40.5052 11.6276 40.4401 11.6276 40.3359 11.6016C40.4141 12.2786 40.4401 12.9688 40.4141 13.6719C40.388 14.349 40.362 15.0521 40.3359 15.7812C40.3099 16.4844 40.3099 17.2135 40.3359 17.9688C40.362 18.724 40.4661 19.5052 40.6484 20.3125C41.7682 19.6615 42.6667 18.8151 43.3438 17.7734C44.0469 16.7318 44.5938 15.5729 44.9844 14.2969C45.401 13.0208 45.7135 11.6536 45.9219 10.1953C46.1562 8.73698 46.3906 7.2526 46.625 5.74219C46.9115 5.45573 47.1328 5.10417 47.2891 4.6875C47.4714 4.27083 47.6146 3.84115 47.7188 3.39844C47.849 2.95573 47.9661 2.51302 48.0703 2.07031C48.2005 1.60156 48.3698 1.1849 48.5781 0.820312C49.0469 0.872396 49.4375 1.01562 49.75 1.25C50.0885 1.45833 50.401 1.70573 50.6875 1.99219C50.974 2.2526 51.2734 2.5 51.5859 2.73438C51.8984 2.96875 52.2891 3.125 52.7578 3.20312C53.1224 3.72396 53.4609 4.23177 53.7734 4.72656C54.0859 5.19531 54.2943 5.72917 54.3984 6.32812C54.2422 6.58854 54.125 6.875 54.0469 7.1875C53.9688 7.5 53.8776 7.8125 53.7734 8.125C53.6953 8.4375 53.5781 8.72396 53.4219 8.98438C53.2656 9.24479 53.0443 9.46615 52.7578 9.64844C52.6797 10.4297 52.5625 11.1589 52.4062 11.8359C52.25 12.513 52.1068 13.1771 51.9766 13.8281C51.8464 14.4792 51.7292 15.1562 51.625 15.8594C51.5208 16.5625 51.4818 17.3307 51.5078 18.1641C51.2734 18.9193 51.013 19.7005 50.7266 20.5078C50.4401 21.2891 50.2318 22.0182 50.1016 22.6953C49.6068 23.0859 49.2161 23.5677 48.9297 24.1406C48.6432 24.7135 48.3438 25.2865 48.0312 25.8594C47.901 25.9635 47.8229 25.9896 47.7969 25.9375C47.7708 25.8594 47.6536 25.8073 47.4453 25.7812C47.4714 26.0156 47.4193 26.1719 47.2891 26.25C47.1849 26.3021 47.1979 26.4844 47.3281 26.7969C46.8854 27.0052 46.4948 27.2786 46.1562 27.6172C45.8177 27.9557 45.4401 28.2682 45.0234 28.5547C44.6328 28.8411 44.1641 29.0365 43.6172 29.1406C43.0964 29.2188 42.4062 29.1016 41.5469 28.7891C40.2708 27.8516 39.125 26.7708 38.1094 25.5469C37.0938 24.3229 36.2865 22.8776 35.6875 21.2109C35.4271 21.2891 35.2318 21.4583 35.1016 21.7188C34.9714 21.9792 34.8542 22.2526 34.75 22.5391C34.6458 22.8255 34.5417 23.0859 34.4375 23.3203C34.3333 23.5547 34.1771 23.6719 33.9688 23.6719C33.9167 23.9062 33.8125 24.1276 33.6562 24.3359C33.526 24.5182 33.3958 24.7135 33.2656 24.9219C33.1354 25.1042 33.0312 25.3125 32.9531 25.5469C32.901 25.7812 32.9401 26.0417 33.0703 26.3281ZM64.7109 8.08594C65.1797 7.7474 65.6875 7.20052 66.2344 6.44531C66.7812 5.66406 67.3542 4.89583 67.9531 4.14062C68.5781 3.38542 69.2031 2.73438 69.8281 2.1875C70.4792 1.61458 71.1302 1.36719 71.7812 1.44531C72.1979 2.38281 72.4193 3.32031 72.4453 4.25781C72.4714 5.16927 72.3802 6.21094 72.1719 7.38281C71.9375 7.66927 71.599 8.0599 71.1562 8.55469C70.7135 9.04948 70.2188 9.60938 69.6719 10.2344C69.151 10.8333 68.6042 11.4583 68.0312 12.1094C67.4583 12.7604 66.9115 13.3854 66.3906 13.9844C65.8958 14.5833 65.4531 15.1302 65.0625 15.625C64.6979 16.1198 64.4505 16.5104 64.3203 16.7969C63.9557 17.1875 63.4609 17.7344 62.8359 18.4375C62.237 19.1406 61.612 19.8828 60.9609 20.6641C60.3099 21.4453 59.6719 22.2135 59.0469 22.9688C58.4479 23.6979 57.9531 24.3099 57.5625 24.8047C57.5365 24.9349 57.5755 25.0521 57.6797 25.1562C57.7839 25.2604 57.862 25.3776 57.9141 25.5078C57.6276 25.7682 57.4583 26.0156 57.4062 26.25C57.3542 26.4583 57.3411 26.6797 57.3672 26.9141C57.3932 27.1484 57.4323 27.3828 57.4844 27.6172C57.5365 27.8255 57.5495 28.0599 57.5234 28.3203C57.3411 28.4766 57.1849 28.6589 57.0547 28.8672C56.9505 29.0755 56.8333 29.2839 56.7031 29.4922C56.599 29.6745 56.4557 29.8568 56.2734 30.0391C56.1172 30.2214 55.9089 30.3776 55.6484 30.5078C55.1016 30.4557 54.6589 30.3776 54.3203 30.2734C53.9818 30.1953 53.5781 30.1172 53.1094 30.0391C52.6667 29.6745 52.3672 29.2318 52.2109 28.7109C52.0547 28.1641 51.9896 27.6172 52.0156 27.0703C52.0156 26.4974 52.0807 25.9375 52.2109 25.3906C52.3151 24.8177 52.4323 24.3229 52.5625 23.9062C52.849 23.724 52.862 23.5938 52.6016 23.5156C52.7057 23.151 52.888 22.8516 53.1484 22.6172C53.4089 22.3568 53.5391 22.1354 53.5391 21.9531C53.7214 21.6667 54.0729 21.237 54.5938 20.6641C55.1146 20.0651 55.6745 19.4271 56.2734 18.75C56.8984 18.0729 57.4974 17.4219 58.0703 16.7969C58.6432 16.1458 59.0859 15.638 59.3984 15.2734C59.5547 14.8568 59.9062 14.3229 60.4531 13.6719C61.026 12.9948 61.612 12.3047 62.2109 11.6016C62.8359 10.8984 63.3958 10.2344 63.8906 9.60938C64.4115 8.98438 64.6849 8.47656 64.7109 8.08594ZM73.2656 30.4297C72.5104 30.2474 71.9245 29.9479 71.5078 29.5312C71.1172 29.0885 70.8177 28.5807 70.6094 28.0078C70.4271 27.4089 70.2969 26.7578 70.2188 26.0547C70.1667 25.3516 70.1016 24.6224 70.0234 23.8672C70.1276 23.5286 70.2578 23.2422 70.4141 23.0078C70.5964 22.7734 70.6745 22.4479 70.6484 22.0312C70.9349 21.1979 71.1953 20.3906 71.4297 19.6094C71.6641 18.8281 71.8203 18.0208 71.8984 17.1875C72.0547 16.9531 72.2109 16.7969 72.3672 16.7188C72.5755 15.2344 72.6016 13.7109 72.4453 12.1484C72.2891 10.5859 72.0286 9.14062 71.6641 7.8125C71.6901 7.52604 71.7292 7.31771 71.7812 7.1875C71.8333 7.03125 71.8333 6.90104 71.7812 6.79688C71.7292 6.5625 71.8073 6.44531 72.0156 6.44531C72.224 6.44531 72.4323 6.44531 72.6406 6.44531C72.6406 5.97656 72.5495 5.52083 72.3672 5.07812C72.2109 4.60938 72.0547 4.07552 71.8984 3.47656C72.1068 3.00781 72.25 2.55208 72.3281 2.10938C72.4062 1.66667 72.5495 1.26302 72.7578 0.898438C73.5911 1.15885 74.4115 1.45833 75.2188 1.79688C76.026 2.13542 76.8203 2.47396 77.6016 2.8125C78.3828 3.125 79.151 3.4375 79.9062 3.75C80.6615 4.03646 81.4036 4.27083 82.1328 4.45312C83.2526 5.26042 84.3984 6.06771 85.5703 6.875C86.7682 7.65625 87.849 8.52865 88.8125 9.49219C89.8021 10.4297 90.6224 11.5104 91.2734 12.7344C91.9245 13.9583 92.3021 15.4036 92.4062 17.0703C92.3542 17.2266 92.3151 17.3568 92.2891 17.4609C92.263 17.5651 92.237 17.6693 92.2109 17.7734C92.1849 17.8776 92.1719 17.9948 92.1719 18.125C92.1719 18.2552 92.1719 18.4375 92.1719 18.6719C91.2344 20.3125 90.0495 21.6927 88.6172 22.8125C87.1849 23.9323 85.6224 24.9219 83.9297 25.7812C82.237 26.6406 80.4661 27.4349 78.6172 28.1641C76.7943 28.8672 75.0104 29.6224 73.2656 30.4297ZM77.0938 8.28125C76.8594 8.28125 76.6901 8.33333 76.5859 8.4375C76.8984 9.60938 77.1328 10.7161 77.2891 11.7578C77.4453 12.7995 77.5234 13.8411 77.5234 14.8828C77.5495 15.9245 77.4974 16.9922 77.3672 18.0859C77.237 19.1797 77.0547 20.3646 76.8203 21.6406C77.1589 21.6146 77.4583 21.5495 77.7188 21.4453C77.9792 21.3411 78.2396 21.224 78.5 21.0938C78.7865 20.9635 79.0729 20.8464 79.3594 20.7422C79.6719 20.638 80.0234 20.5729 80.4141 20.5469C80.5182 20.3385 80.6484 20.1823 80.8047 20.0781C80.987 19.9479 81.1432 19.8177 81.2734 19.6875C81.9245 19.4271 82.5755 19.1536 83.2266 18.8672C83.8776 18.5807 84.4766 18.2552 85.0234 17.8906C85.5703 17.526 86.0651 17.1094 86.5078 16.6406C86.9505 16.1719 87.3151 15.612 87.6016 14.9609C87.3932 14.5703 87.1328 14.2448 86.8203 13.9844C86.5339 13.6979 86.2214 13.4245 85.8828 13.1641C85.5703 12.8776 85.2578 12.5911 84.9453 12.3047C84.6589 11.9922 84.4245 11.6406 84.2422 11.25C83.8255 11.1979 83.4609 11.0938 83.1484 10.9375C82.8359 10.7552 82.5365 10.5859 82.25 10.4297C81.9635 10.2474 81.651 10.0781 81.3125 9.92188C81 9.76562 80.6224 9.67448 80.1797 9.64844C79.5026 9.28385 78.8906 9.03646 78.3438 8.90625C77.7969 8.75 77.3802 8.54167 77.0938 8.28125ZM114.906 17.6562C114.906 17.9688 115.023 18.2552 115.258 18.5156C115.518 18.75 115.714 19.0234 115.844 19.3359C116 19.7005 116.039 20.0651 115.961 20.4297C115.909 20.7943 115.766 21.1198 115.531 21.4062C115.297 21.6927 114.984 21.9401 114.594 22.1484C114.229 22.3568 113.799 22.5 113.305 22.5781C112.992 22.4479 112.745 22.3958 112.562 22.4219C112.406 22.4479 112.185 22.3958 111.898 22.2656C111.43 22.5781 110.857 22.8906 110.18 23.2031C109.529 23.4896 108.891 23.5677 108.266 23.4375C108.188 23.6458 108.031 23.75 107.797 23.75C107.589 23.75 107.458 23.8672 107.406 24.1016C106.339 24.2839 105.297 24.5703 104.281 24.9609C103.266 25.3516 102.276 25.7812 101.312 26.25C100.349 26.6927 99.4115 27.1484 98.5 27.6172C97.6146 28.0859 96.7552 28.4896 95.9219 28.8281C95.5573 28.724 95.2188 28.737 94.9062 28.8672C94.5938 28.9714 94.2682 29.0104 93.9297 28.9844C94.0078 28.9062 94.0208 28.8542 93.9688 28.8281C93.9167 28.8021 93.8385 28.7891 93.7344 28.7891C93.6302 28.763 93.513 28.75 93.3828 28.75C93.2786 28.724 93.1875 28.6719 93.1094 28.5938C92.8229 28.4115 92.6146 28.2682 92.4844 28.1641C92.3281 28.0599 92.2109 27.9818 92.1328 27.9297C92.0286 27.8776 91.9245 27.8125 91.8203 27.7344C91.7161 27.6562 91.5729 27.5391 91.3906 27.3828C91.4948 27.1224 91.5599 26.9141 91.5859 26.7578C91.5859 26.5755 91.5729 26.4193 91.5469 26.2891C91.5208 26.1328 91.4948 25.9766 91.4688 25.8203C91.4167 25.6641 91.4036 25.4557 91.4297 25.1953C92.862 24.2839 94.125 23.5677 95.2188 23.0469C96.3125 22.5 97.3802 22.0312 98.4219 21.6406C99.4635 21.25 100.531 20.8854 101.625 20.5469C102.745 20.1823 104.034 19.7135 105.492 19.1406C104.893 18.8021 104.112 18.4896 103.148 18.2031C102.211 17.9167 101.26 17.6042 100.297 17.2656C99.3594 16.901 98.5 16.4583 97.7188 15.9375C96.9375 15.4167 96.4167 14.7396 96.1562 13.9062C95.7917 13.8802 95.4661 13.6719 95.1797 13.2812C94.9193 12.8906 94.8151 12.4349 94.8672 11.9141C95.1276 11.7578 95.362 11.5885 95.5703 11.4062C95.8047 11.1979 96.0911 11.0417 96.4297 10.9375C96.7161 10.8854 97.0807 10.9115 97.5234 11.0156C97.9922 11.1198 98.487 11.263 99.0078 11.4453C99.5547 11.6276 100.115 11.8229 100.688 12.0312C101.286 12.2396 101.846 12.4089 102.367 12.5391C102.888 12.6693 103.448 12.7865 104.047 12.8906C104.672 12.9948 105.245 13.151 105.766 13.3594C106 13.4635 106.195 13.5938 106.352 13.75C106.534 13.8802 106.742 13.9714 106.977 14.0234C107.445 14.1016 107.94 14.2578 108.461 14.4922C109.008 14.7005 109.555 14.9349 110.102 15.1953C110.648 15.4557 111.182 15.7292 111.703 16.0156C112.25 16.276 112.758 16.4974 113.227 16.6797C113.201 16.8359 113.37 17.0312 113.734 17.2656C114.099 17.5 114.49 17.6302 114.906 17.6562Z" fill="white"/>
</svg>
